<?xml version="1.0" encoding="iso-8859-1"?>
<!-- Generator: Adobe Illustrator 18.0.0, SVG Export Plug-In . SVG Version: 6.00 Build 0)  -->
<!DOCTYPE svg PUBLIC "-//W3C//DTD SVG 1.1//EN" "http://www.w3.org/Graphics/SVG/1.1/DTD/svg11.dtd">
<svg version="1.1" id="Capa_1" xmlns="http://www.w3.org/2000/svg" xmlns:xlink="http://www.w3.org/1999/xlink" x="0px" y="0px"
	 viewBox="0 0 297.496 297.496" style="enable-background:new 0 0 297.496 297.496;" xml:space="preserve">
<g id="XMLID_43_">
	<g>
		<path style="fill:#983823;" d="M176.925,221.637h-42.21c4.53-10.54,15.181-17.949,21.101-21.42
			C161.715,203.698,172.366,211.128,176.925,221.637z"/>
		<path style="fill:#EA5B2C;" d="M217.196,113.708c-2.721,13.25-8.9,26.66-17.62,37.8c-12.5,15.95-27.96,24.74-43.54,24.74
			c-35.24,0-50.78-18.95-70.45-42.94c-14.16-17.279-29.9-36.48-55.17-50.56c7.04-3.58,16.72-6.89,28.42-6.89
			c6.96,0,14.08,1.199,21.16,3.559c11.16,3.72,21.47,9.6,32.38,15.83c20.36,11.61,41.41,23.62,70.71,23.62c0.01,0,0.01,0,0.02,0
			C194.076,118.868,205.326,117.177,217.196,113.708z"/>
		<path d="M258.005,58.288c21.641,0,39.24,17.6,39.24,39.24c0,21.64-17.6,39.25-39.24,39.25c-5.59,0-10.12-4.53-10.12-10.11
			c0-5.59,4.53-10.12,10.12-10.12c10.48,0,19.02-8.53,19.02-19.02c0-10.49-8.54-19.021-19.02-19.021
			c-10.49,0-19.03,9.25-19.03,19.74c0,37.32-24.819,80.38-59.859,93.86c9.88,8.569,19.92,21.52,20.189,38.909
			c0.02,0.24,0.03,0.49,0.03,0.73c0,5.59-4.53,10.11-10.12,10.11h-0.01h-66.75c-5.59,0-10.11-4.521-10.11-10.11
			c0-16.9,9.21-29.66,18.73-38.34c-28.5-7.51-45.04-27.65-61.13-47.28c-16.19-19.76-32.94-40.19-63.34-52.34
			c-3.16-1.271-5.471-4.03-6.15-7.36c-0.68-3.33,0.35-6.779,2.75-9.189c0.89-0.88,22-21.601,55.63-21.601
			c9.14,0,18.41,1.54,27.561,4.591c13.05,4.35,24.72,11.01,36.01,17.449c9.45,5.391,18.63,10.63,28.45,14.53
			c9.819,3.89,20.26,6.44,32.239,6.44c11.301,0,23.15-2.25,36.08-6.841C221.955,72.868,238.305,58.288,258.005,58.288z
			 M199.576,151.508c8.72-11.14,14.9-24.55,17.62-37.8c-11.87,3.47-23.12,5.16-34.09,5.16c-0.011,0-0.011,0-0.02,0
			c-29.3,0-50.35-12.01-70.71-23.62c-10.91-6.23-21.22-12.11-32.38-15.83c-7.08-2.36-14.2-3.559-21.16-3.559
			c-11.7,0-21.38,3.309-28.42,6.89c25.269,14.08,41.01,33.28,55.17,50.56c19.67,23.99,35.21,42.94,70.45,42.94
			C171.616,176.248,187.076,167.458,199.576,151.508z M134.715,221.637h42.21c-4.56-10.51-15.21-17.939-21.109-21.42
			C149.896,203.688,139.246,211.097,134.715,221.637z"/>
	</g>
	<g>
	</g>
</g>
<g>
</g>
<g>
</g>
<g>
</g>
<g>
</g>
<g>
</g>
<g>
</g>
<g>
</g>
<g>
</g>
<g>
</g>
<g>
</g>
<g>
</g>
<g>
</g>
<g>
</g>
<g>
</g>
<g>
</g>
</svg>
