<?xml version="1.0" encoding="iso-8859-1"?>
<!-- Generator: Adobe Illustrator 18.0.0, SVG Export Plug-In . SVG Version: 6.00 Build 0)  -->
<!DOCTYPE svg PUBLIC "-//W3C//DTD SVG 1.1//EN" "http://www.w3.org/Graphics/SVG/1.1/DTD/svg11.dtd">
<svg version="1.1" id="Capa_1" xmlns="http://www.w3.org/2000/svg" xmlns:xlink="http://www.w3.org/1999/xlink" x="0px" y="0px"
	 viewBox="0 0 297.503 297.503" style="enable-background:new 0 0 297.503 297.503;" xml:space="preserve">
<g id="XMLID_26_">
	<g>
		<path style="fill:#983823;" d="M249.108,117.352l-25.07,160.131H71.968L46.898,117.352h18.789
			c20.54,24.37,50.271,38.25,82.311,38.25c32.05,0,61.78-13.88,82.32-38.25H249.108z"/>
		<path style="fill:#F4AF30;" d="M72.888,37.653v2.67c-2.14,1.96-3.399,4.84-3.189,7.96l3.189,49.3h-12.85v-59.93H72.888z"/>
		<path style="fill:#F4AF30;" d="M102.908,55.913l4.81,70.21c-4.729-2.44-9.229-5.311-13.47-8.59l-4.15-60.74L102.908,55.913z"/>
		<polygon style="fill:#F4AF30;" points="250.298,42.533 237.528,97.583 224.328,97.583 237.788,39.633 		"/>
		<polygon style="fill:#F4AF30;" points="219.437,21.852 216.767,42.733 206.178,39.683 206.588,21.573 		"/>
		<path style="fill:#F4AF30;" d="M210.727,61.562l-13.779,59.44c-8.011,5.38-16.84,9.4-26.2,11.88l18.01-77.649L210.727,61.562z"/>
		<polygon style="fill:#F4AF30;" points="159.348,20.533 157.498,102.522 149.778,135.803 143.898,135.803 146.508,20.243 		"/>
		<path d="M270.548,29.903c1.38,2.22,1.83,4.909,1.24,7.46l-13.97,60.22h2.84c2.89,0,5.64,1.27,7.51,3.46
			c1.88,2.2,2.7,5.1,2.26,7.96l-28.17,179.9c-0.75,4.81-4.89,8.35-9.76,8.35H63.508c-4.87,0-9.01-3.54-9.76-8.35l-28.17-179.9
			c-0.44-2.86,0.38-5.76,2.26-7.96c1.87-2.19,4.62-3.46,7.51-3.46h4.92V27.772c0-5.46,4.431-9.88,9.891-9.88h32.609
			c5.46,0,9.891,4.42,9.891,9.88v9.03l18.76-1.28c2.63-0.18,5.2,0.691,7.17,2.41c1.98,1.721,3.19,4.16,3.37,6.771l3.17,46.39
			l1.84-81.18c0.12-5.46,4.601-9.79,10.101-9.66l32.609,0.74c2.62,0.06,5.11,1.149,6.92,3.05c1.811,1.89,2.801,4.43,2.74,7.05
			l-0.51,22.25c1.75-0.49,3.609-0.5,5.39,0.01l2.32,0.67l0.52-22.779c0.12-5.38,4.52-9.66,9.87-9.66c0.08,0,0.15,0,0.23,0
			l32.609,0.74c2.62,0.05,5.11,1.149,6.92,3.05c1.811,1.89,2.79,4.43,2.73,7.05l-0.16,7.26l25.13,5.82
			C266.937,26.093,269.158,27.673,270.548,29.903z M237.528,97.583l12.77-55.05l-12.51-2.9l-13.46,57.95H237.528z M224.038,277.483
			l25.07-160.131h-18.79c-20.54,24.37-50.27,38.25-82.32,38.25c-32.04,0-61.771-13.88-82.311-38.25H46.898l25.069,160.131H224.038z
			 M216.767,42.733l2.67-20.881l-12.85-0.279l-0.41,18.109L216.767,42.733z M196.948,121.003l13.779-59.44l-21.97-6.329
			l-18.01,77.649C180.108,130.403,188.937,126.383,196.948,121.003z M157.498,102.522l1.85-81.989l-12.84-0.29l-2.609,115.56h5.88
			L157.498,102.522z M107.718,126.123l-4.81-70.21l-12.811,0.88l4.15,60.74C98.488,120.812,102.988,123.683,107.718,126.123z
			 M72.888,40.323v-2.67h-12.85v59.93h12.85l-3.189-49.3C69.488,45.163,70.748,42.283,72.888,40.323z"/>
	</g>
	<g>
	</g>
</g>
<g>
</g>
<g>
</g>
<g>
</g>
<g>
</g>
<g>
</g>
<g>
</g>
<g>
</g>
<g>
</g>
<g>
</g>
<g>
</g>
<g>
</g>
<g>
</g>
<g>
</g>
<g>
</g>
<g>
</g>
</svg>
